<?xml version="1.0" standalone="no"?>
<svg xmlns:xlink="http://www.w3.org/1999/xlink" xmlns="http://www.w3.org/2000/svg" viewBox="0 0 800 800" width="800px" height="800px"><path d="M 338.19660112501055 209.78869674096927 A 200 200 0 0 0 338.1966011250105 590.2113032590307 L 400 400 L 338.19660112501055 209.78869674096927" fill="red"/><text x="179.99999999999997" y="400" fill="red"><tspan text-anchor="end">Opt 1 0.4%</tspan></text><path d="M 600 400 A 200 200 0 0 0 338.19660112501055 209.78869674096927 L 400 400 L 600 400" fill="blue"/><text x="529.3127555043441" y="222.01626123751154" fill="blue"><tspan text-anchor="start">Opt 2 0.3%</tspan></text><path d="M 461.8033988749895 590.2113032590307 A 200 200 0 0 0 600 400 L 400 400 L 461.8033988749895 590.2113032590307" fill="green"/><text x="577.9837387624884" y="529.3127555043441" fill="green"><tspan text-anchor="start">Opt 3 0.2%</tspan></text><path d="M 338.19660112501055 590.2113032590307 A 200 200 0 0 0 461.8033988749895 590.2113032590307 L 400 400 L 338.19660112501055 590.2113032590307" fill="gray"/><text x="400" y="630" fill="gray"><tspan text-anchor="start">Opt 4 0.1%</tspan></text></svg>