<?xml version="1.0" encoding="utf-8"?>
<!-- Generator: Adobe Illustrator 20.1.0, SVG Export Plug-In . SVG Version: 6.00 Build 0)  -->
<svg version="1.1" id="Camada_1" xmlns="http://www.w3.org/2000/svg" xmlns:xlink="http://www.w3.org/1999/xlink" x="0px" y="0px"
	 viewBox="0 0 800 800" style="enable-background:new 0 0 800 800;" xml:space="preserve">
<style type="text/css">
	.st0{fill:#FF3337;}
	.st1{font-family:'ArialMT';}
	.st2{font-size:12px;}
	.st3{fill:#322B80;}
	.st4{fill:#008000;}
	.st5{fill:#808080;}
</style>
<path class="st0" d="M338.2,209.8c-105.1,34.1-162.5,147-128.4,252c19.8,60.9,67.5,108.6,128.4,128.4L400,400L338.2,209.8"/>
<text transform="matrix(1 0 0 1 119.9648 400)" class="st0 st1 st2">Opt 1 0.4%</text>
<path class="st3" d="M600,400c0-110.5-89.5-200-200-200c-21,0-41.8,3.3-61.8,9.8L400,400H600"/>
<text transform="matrix(1 0 0 1 529.3127 222.0162)" class="st3 st1 st2">Opt 2 0.3%</text>
<path class="st4" d="M461.8,590.2C544.2,563.4,600,486.6,600,400H400L461.8,590.2"/>
<text transform="matrix(1 0 0 1 577.9838 529.3127)" class="st4 st1 st2">Opt 3 0.2%</text>
<path class="st5" d="M338.2,590.2c40.2,13.1,83.4,13.1,123.6,0L400,400L338.2,590.2"/>
<text transform="matrix(1 0 0 1 400 630)" class="st5 st1 st2">Opt 4 0.1%</text>
</svg>
